# xmcd CD database file
#
# Track frame offsets:
#	150
#	17540
#	34885
#	53000
#	69607
#	87532
#	105652
#	122127
#	139967
#	158090
#	177097
#	197230
#
# Disc length: 2875 seconds
#
# Revision: 1
# Processed by: cddbd v1.5.2PL0 Copyright (c) Steve Scherf et al.
# Submitted via: CDex 1.84
#
DISCID=a40b390c
DTITLE=Lou Volpe - Can you hear that [CAP 969]
DYEAR=2003
DGENRE=Jazz
TTITLE0=Sweet Miss "T"
TTITLE1=Forest Sunset
TTITLE2=Can you hear that?
TTITLE3=Coltrane of Thought
TTITLE4=Mountain Sigh
TTITLE5=Baby You're Number One
TTITLE6=Ambush
TTITLE7=You send me
TTITLE8=Two Faces
TTITLE9=Jester Strum
TTITLE10=Like a Dream
TTITLE11=If you should leave
EXTD=YEAR: 2003
EXTT0=
EXTT1=
EXTT2=
EXTT3=
EXTT4=
EXTT5=
EXTT6=
EXTT7=
EXTT8=
EXTT9=
EXTT10=
EXTT11=
PLAYORDER=
